<?xml version="1.0" encoding="utf-8"?><svg xml:space="preserve" viewBox="0 0 100 100" y="0" x="0" xmlns="http://www.w3.org/2000/svg" id="圖層_1" version="1.1" width="499px" height="499px" xmlns:xlink="http://www.w3.org/1999/xlink" style="width:100%;height:100%;background-size:initial;background-repeat-y:initial;background-repeat-x:initial;background-position-y:initial;background-position-x:initial;background-origin:initial;background-color:initial;background-clip:initial;background-attachment:initial;animation-play-state:paused" ><g class="ldl-scale" style="transform-origin:50% 50%;transform:rotate(0deg) scale(0.8, 0.8);animation-play-state:paused" ><path stroke-miterlimit="10" stroke-linejoin="round" stroke-width="4" stroke="#333" fill="none" d="M90 54.515L76.062 43.434V26.042a2.274 2.274 0 0 0-2.274-2.274h-6.986a2.274 2.274 0 0 0-2.274 2.274v8.221L50 22.714 10 54.515l5.108 6.424 5.827-4.633v17.135a3.846 3.846 0 0 0 3.846 3.846H75.22a3.846 3.846 0 0 0 3.846-3.846V56.306l5.827 4.633L90 54.515z" style="stroke:rgb(51, 51, 51);animation-play-state:paused" ></path>
<path d="M39 68l22-22" stroke-miterlimit="10" stroke-width="7" stroke="#e15b64" fill="none" style="stroke:rgb(225, 91, 100);animation-play-state:paused" ></path>
<path d="M61 68L39 46" stroke-miterlimit="10" stroke-width="7" stroke="#e15b64" fill="none" style="stroke:rgb(225, 91, 100);animation-play-state:paused" ></path>
<metadata xmlns:d="https://loading.io/stock/" style="animation-play-state:paused" ><d:name style="animation-play-state:paused" >house</d:name>


<d:tags style="animation-play-state:paused" >house,home,landing page,building,construction,remove,deny,delete,drop,cancel</d:tags>


<d:license style="animation-play-state:paused" >by</d:license>


<d:slug style="animation-play-state:paused" >sykxzt</d:slug></metadata></g><!-- generated by https://loading.io/ --></svg>